<svg width="292.65" height="70" viewBox="0 0 292.65 70" xmlns="http://www.w3.org/2000/svg">
    <g class="xyz" id="svgGroup" stroke-linecap="round" fill-rule="evenodd" fill="currentColor" font-size="9pt" stroke-width="0.25mm">
        <path d="M 46.5 70 L 0 70 L 0 41.15 L 10.3 30.85 L 29.35 30.85 L 32.4 27.8 L 32.4 17.2 L 29.35 14.15 L 17.15 14.15 L 14.1 17.2 L 14.1 24.35 L 0 24.35 L 0 10.3 L 10.3 0 L 36.2 0 L 46.5 10.3 L 46.5 34.7 L 36.2 45 L 17.15 45 L 14.1 48.05 L 14.1 55.85 L 46.5 55.85 L 46.5 70 Z M 156.75 70 L 110.25 70 L 110.25 41.15 L 120.55 30.85 L 139.6 30.85 L 142.65 27.8 L 142.65 17.2 L 139.6 14.15 L 127.4 14.15 L 124.35 17.2 L 124.35 24.35 L 110.25 24.35 L 110.25 10.3 L 120.55 0 L 146.45 0 L 156.75 10.3 L 156.75 34.7 L 146.45 45 L 127.4 45 L 124.35 48.05 L 124.35 55.85 L 156.75 55.85 L 156.75 70 Z M 1.3 41.75 L 1.3 68.65 L 45.2 68.65 L 45.2 57.2 L 12.75 57.2 L 12.75 47.5 L 16.6 43.65 L 35.65 43.65 L 45.2 34.15 L 45.2 10.85 L 35.65 1.35 L 10.85 1.35 L 1.3 10.85 L 1.3 23 L 12.75 23 L 12.75 16.65 L 16.6 12.8 L 29.9 12.8 L 33.75 16.65 L 33.75 28.35 L 29.9 32.2 L 10.85 32.2 L 1.3 41.75 Z M 111.55 41.75 L 111.55 68.65 L 155.45 68.65 L 155.45 57.2 L 123 57.2 L 123 47.5 L 126.85 43.65 L 145.9 43.65 L 155.45 34.15 L 155.45 10.85 L 145.9 1.35 L 121.1 1.35 L 111.55 10.85 L 111.55 23 L 123 23 L 123 16.65 L 126.85 12.8 L 140.15 12.8 L 144 16.65 L 144 28.35 L 140.15 32.2 L 121.1 32.2 L 111.55 41.75 Z M 200.1 70 L 174.55 70 L 164.25 59.7 L 164.25 46.15 L 178.35 46.15 L 178.35 52.8 L 181.4 55.85 L 193.25 55.85 L 196.3 52.8 L 196.3 45.15 L 193.25 42.1 L 182.45 42.1 L 182.45 28 L 193.2 28 L 196.3 24.65 L 196.3 17.2 L 193.25 14.15 L 181.4 14.15 L 178.35 17.2 L 178.35 23.85 L 164.25 23.85 L 164.25 10.3 L 174.55 0 L 200.1 0 L 210.4 10.3 L 210.4 31.85 L 207.25 35 L 210.4 38.25 L 210.4 59.7 L 200.1 70 Z M 165.55 59.15 L 175.1 68.65 L 199.55 68.65 L 209.1 59.15 L 209.1 38.85 L 205.25 35.1 L 209.1 31.25 L 209.1 10.85 L 199.55 1.35 L 175.1 1.35 L 165.55 10.85 L 165.55 22.5 L 177 22.5 L 177 16.65 L 180.85 12.8 L 193.8 12.8 L 197.65 16.65 L 197.65 25.2 L 193.8 29.35 L 183.8 29.35 L 183.8 40.75 L 193.8 40.75 L 197.65 44.6 L 197.65 53.35 L 193.8 57.2 L 180.85 57.2 L 177 53.35 L 177 47.5 L 165.55 47.5 L 165.55 59.15 Z M 92.45 70 L 64.3 70 L 54 59.7 L 54 10.3 L 64.3 0 L 92.45 0 L 102.75 10.3 L 102.75 59.7 L 92.45 70 Z M 55.35 59.15 L 64.85 68.65 L 91.9 68.65 L 101.4 59.15 L 101.4 10.85 L 91.9 1.35 L 64.85 1.35 L 55.35 10.85 L 55.35 59.15 Z M 241.45 55.6 L 228.65 55.6 L 228.65 46.2 L 219.25 46.2 L 219.25 33.4 L 228.65 33.4 L 228.65 24 L 241.45 24 L 241.45 33.4 L 250.85 33.4 L 250.85 46.2 L 241.45 46.2 L 241.45 55.6 Z M 283.25 55.6 L 270.45 55.6 L 270.45 46.2 L 261.05 46.2 L 261.05 33.4 L 270.45 33.4 L 270.45 24 L 283.25 24 L 283.25 33.4 L 292.65 33.4 L 292.65 46.2 L 283.25 46.2 L 283.25 55.6 Z M 230.05 44.8 L 230.05 54.2 L 240.05 54.2 L 240.05 44.8 L 249.45 44.8 L 249.45 34.8 L 240.05 34.8 L 240.05 25.4 L 230.05 25.4 L 230.05 34.8 L 220.65 34.8 L 220.65 44.8 L 230.05 44.8 Z M 271.85 44.8 L 271.85 54.2 L 281.85 54.2 L 281.85 44.8 L 291.25 44.8 L 291.25 34.8 L 281.85 34.8 L 281.85 25.4 L 271.85 25.4 L 271.85 34.8 L 262.45 34.8 L 262.45 44.8 L 271.85 44.8 Z M 87.1 57.2 L 71.65 57.2 L 71.65 55.8 L 89.7 23.2 L 90.95 23.2 L 90.95 53.35 L 87.1 57.2 Z M 67.05 45.8 L 65.85 45.8 L 65.85 16.65 L 69.65 12.8 L 84.45 12.8 L 84.45 14.2 L 67.05 45.8 Z M 89.6 26.1 L 73.2 55.85 L 86.55 55.85 L 89.6 52.8 L 89.6 26.1 Z M 67.15 17.2 L 67.15 42.8 L 82.9 14.15 L 70.25 14.15 L 67.15 17.2 Z" vector-effect="non-scaling-stroke"/>
    </g>
</svg>