
<svg xmlns="http://www.w3.org/2000/svg" viewBox="0 0 128 128" >
<rect width="128" height="128" fill="#B388FF" />
  <path 
    transform="translate(70,110)"  
    d="M-6.98 8.83L-6.98 8.83L-6.98 8.83Q-3.71 8.45-1.66 4.22L-1.66 4.22L-1.66 4.22Q0.45-0.06 2.37-9.92L2.37-9.92L8.58-42.24L22.46-42.24L16.26-9.92L16.26-9.92Q13.89 2.62 9.98 7.55L9.98 7.55L9.98 7.55Q7.94 10.11 5.34 11.14L5.34 11.14L5.34 11.14Q2.75 12.16-0.06 12.16L-0.06 12.16L-0.06 12.16Q-2.88 12.16-4.70 11.14L-4.70 11.14L-4.70 11.14Q-6.53 10.11-6.98 8.83ZM50.62-9.86L50.62-9.86L50.62-9.86Q51.84-8.32 51.84-5.34L51.84-5.34L51.84-5.34Q51.84-2.37 49.57-0.54L49.57-0.54L49.57-0.54Q47.30 1.28 43.33 1.28L43.33 1.28L43.33 1.28Q41.02 1.28 37.44 0.77L37.44 0.77L37.44 0.77Q30.40-0.32 28.38-0.32L28.38-0.32L28.38-0.32Q26.37-0.32 25.54-0.22L25.54-0.22L25.54-0.22Q24.70-0.13 23.36 0L23.36 0L31.10-42.24L45.12-42.24L38.72-7.04L38.72-7.04Q39.55-6.91 40.32-6.91L40.32-6.91L41.92-6.91L41.92-6.91Q47.30-6.91 50.62-9.86Z"
    fill="white" 
    stroke="black"
    stroke-width="1">
    </path>
</svg>