<svg width="101.2" height="51" viewBox="0 0 101.2 51" xmlns="http://www.w3.org/2000/svg"><g id="svgGroup" stroke-linecap="round" fill-rule="evenodd" font-size="9pt" stroke="#000" stroke-width="0.1mm" fill="#000" style="stroke:#000;stroke-width:0.1mm;fill:#000"><path d="M 45.9 40.4 L 45.9 33.7 L 47.5 33.7 L 47.5 40.4 Q 47.5 44.8 50.35 47.05 Q 53.2 49.3 57.7 49.3 A 18.081 18.081 0 0 0 60.713 49.064 Q 62.421 48.775 63.803 48.132 A 9.45 9.45 0 0 0 65.25 47.3 A 6.328 6.328 0 0 0 67.699 43.785 Q 68.025 42.68 68.086 41.334 A 13.992 13.992 0 0 0 68.1 40.7 L 68.1 36.9 A 14.586 14.586 0 0 0 67.928 34.584 Q 67.73 33.353 67.303 32.357 A 6.896 6.896 0 0 0 66.5 30.95 Q 64.9 28.8 62.45 27.45 Q 60 26.1 57.2 24.9 A 99.249 99.249 0 0 1 53.608 23.194 A 80.203 80.203 0 0 1 51.5 22.1 A 13.981 13.981 0 0 1 49.034 20.429 A 11.322 11.322 0 0 1 47.35 18.65 A 7.322 7.322 0 0 1 46.1 15.959 Q 45.842 14.92 45.806 13.703 A 13.568 13.568 0 0 1 45.8 13.3 L 45.8 9.9 A 8.858 8.858 0 0 1 48.566 3.301 A 11.037 11.037 0 0 1 49 2.9 A 10.63 10.63 0 0 1 53.106 0.715 Q 54.698 0.254 56.599 0.139 A 21.493 21.493 0 0 1 57.9 0.1 A 18.892 18.892 0 0 1 61.61 0.445 Q 63.906 0.904 65.719 1.978 A 11.316 11.316 0 0 1 66.45 2.45 Q 69.565 4.635 69.784 9.456 A 16.405 16.405 0 0 1 69.8 10.2 L 69.8 16.7 L 68.2 16.7 L 68.2 10.8 Q 68.2 7.713 67.104 5.722 A 6.286 6.286 0 0 0 65.55 3.85 Q 63.474 2.166 59.957 1.801 A 19.953 19.953 0 0 0 57.9 1.7 Q 52.9 1.7 50.15 4.2 A 8.267 8.267 0 0 0 47.443 9.8 A 11.388 11.388 0 0 0 47.4 10.8 L 47.4 12.6 A 10.407 10.407 0 0 0 47.629 14.848 Q 48.024 16.635 49.1 17.9 Q 50.8 19.9 53.2 21.15 Q 55.6 22.4 57.7 23.4 Q 60.7 24.7 63.45 26.25 Q 66.2 27.8 67.95 30.25 A 8.629 8.629 0 0 1 69.206 32.932 Q 69.7 34.669 69.7 36.9 L 69.7 40.7 A 14.457 14.457 0 0 1 69.517 43.076 Q 69.306 44.34 68.853 45.36 A 6.984 6.984 0 0 1 68 46.8 Q 66.3 49 63.6 49.95 A 16.878 16.878 0 0 1 59.365 50.833 A 20.299 20.299 0 0 1 57.7 50.9 A 17.759 17.759 0 0 1 54.067 50.549 Q 51.263 49.963 49.2 48.4 Q 45.9 45.9 45.9 40.4 Z M 13.1 37.9 L 13.1 13.1 Q 13.1 10.8 13.4 8.5 Q 13.7 6.2 14.8 4.25 A 6.859 6.859 0 0 1 16.76 2.083 A 9.549 9.549 0 0 1 18.35 1.15 Q 20.8 0 25.1 0 A 25.133 25.133 0 0 1 27.554 0.112 Q 30.066 0.36 31.75 1.15 A 9.331 9.331 0 0 1 33.548 2.24 A 6.777 6.777 0 0 1 35.3 4.25 Q 36.4 6.2 36.7 8.5 Q 37 10.8 37 13.1 L 37 17.5 L 35.4 17.5 L 35.4 13.4 Q 35.4 10.7 34.85 8 Q 34.3 5.3 32.15 3.45 A 6.288 6.288 0 0 0 30.25 2.359 Q 28.44 1.676 25.716 1.608 A 24.59 24.59 0 0 0 25.1 1.6 A 20.535 20.535 0 0 0 22.59 1.742 Q 19.924 2.072 18.372 3.164 A 5.453 5.453 0 0 0 18 3.45 Q 15.8 5.3 15.25 8 Q 14.7 10.7 14.7 13.4 L 14.7 37.6 A 26.763 26.763 0 0 0 15.092 42.094 A 30.206 30.206 0 0 0 15.25 42.95 Q 15.8 45.7 18 47.55 Q 20.2 49.4 25.1 49.4 A 20.511 20.511 0 0 0 27.574 49.262 Q 30.194 48.942 31.717 47.885 A 5.285 5.285 0 0 0 32.15 47.55 Q 34.3 45.7 34.85 42.95 A 27.836 27.836 0 0 0 35.381 38.58 A 25 25 0 0 0 35.4 37.6 L 35.4 33.6 L 37 33.6 L 37 37.9 Q 37 41 36.4 44 Q 35.8 47 33.3 49 A 7.368 7.368 0 0 1 31.203 50.139 Q 29.176 50.878 26.133 50.983 A 30.021 30.021 0 0 1 25.1 51 A 26.159 26.159 0 0 1 22.593 50.888 Q 20.035 50.641 18.35 49.85 Q 15.9 48.7 14.8 46.8 Q 13.7 44.9 13.4 42.55 Q 13.1 40.2 13.1 37.9 Z M 89.1 50.3 L 87.3 50.3 L 75.3 0.8 L 76.9 0.8 L 88.2 47.6 L 99.6 0.8 L 101.2 0.8 L 89.1 50.3 Z M 0.967 50.521 A 2.303 2.303 0 0 0 1.6 50.6 A 2.357 2.357 0 0 0 2.193 50.532 Q 2.918 50.343 3.121 49.633 A 2.303 2.303 0 0 0 3.2 49 A 2.357 2.357 0 0 0 3.132 48.408 Q 2.943 47.683 2.233 47.479 A 2.303 2.303 0 0 0 1.6 47.4 A 2.357 2.357 0 0 0 1.008 47.468 Q 0.283 47.657 0.08 48.367 A 2.303 2.303 0 0 0 0 49 A 2.357 2.357 0 0 0 0.068 49.593 Q 0.257 50.317 0.967 50.521 Z" vector-effect="non-scaling-stroke"/></g></svg>